<?xml version="1.0" encoding="utf-8"?>
<!-- Generator: Adobe Illustrator 24.0.0, SVG Export Plug-In . SVG Version: 6.00 Build 0)  -->
<svg version="1.1" id="Layer_1" xmlns="http://www.w3.org/2000/svg" xmlns:xlink="http://www.w3.org/1999/xlink" x="0px" y="0px"
	 viewBox="0 0 210.17 202.6" style="enable-background:new 0 0 210.17 202.6;" xml:space="preserve">
<style type="text/css">
	.st0{fill:none;stroke:#000000;stroke-width:2.8346;stroke-miterlimit:10;}
	.st1{fill:none;stroke:#000000;stroke-width:1.4173;stroke-miterlimit:10;}
	.st2{font-family:'Apple-Chancery';}
	.st3{font-size:12.3333px;}
	.st4{fill:none;stroke:#000000;stroke-miterlimit:10;}
	.st5{fill:#27AAE1;}
	.st6{fill:#39B54A;}
	.st7{fill:#8486C1;}
	.st8{fill:#FAA223;}
</style>
<circle class="st0" cx="101.97" cy="102.3" r="45.88"/>
<g>
	<g>
		<line class="st1" x1="101.97" y1="56.42" x2="101.97" y2="36.4"/>
		<g>
			<path d="M101.97,38.94l-5.11,3.11l-0.12-0.17l3.31-8.33c0.64-2.9,1.28-5.8,1.91-8.7c0.64,2.9,1.28,5.8,1.91,8.7l3.31,8.33
				l-0.09,0.17L101.97,38.94z"/>
		</g>
	</g>
</g>
<g>
	<g>
		<line class="st1" x1="147.85" y1="102.3" x2="171.32" y2="102.3"/>
		<g>
			<path d="M168.78,102.3l-3.11-5.11l0.17-0.12l8.33,3.31c2.9,0.64,5.8,1.28,8.7,1.91c-2.9,0.64-5.8,1.28-8.7,1.91l-8.33,3.31
				l-0.17-0.09L168.78,102.3z"/>
		</g>
	</g>
</g>
<g>
	<g>
		<line class="st1" x1="101.97" y1="148.18" x2="101.97" y2="165.24"/>
		<g>
			<path d="M101.97,162.69l5.11-3.11l0.12,0.17l-3.31,8.33c-0.64,2.9-1.28,5.8-1.91,8.7c-0.64-2.9-1.28-5.8-1.91-8.7l-3.31-8.33
				l0.09-0.17L101.97,162.69z"/>
		</g>
	</g>
</g>
<g>
	<g>
		<line class="st1" x1="56.09" y1="102.3" x2="35.58" y2="102.3"/>
		<g>
			<path d="M38.12,102.3l3.11,5.11l-0.17,0.12l-8.33-3.31c-2.9-0.64-5.8-1.28-8.7-1.91c2.9-0.64,5.8-1.28,8.7-1.91l8.33-3.31
				l0.17,0.09L38.12,102.3z"/>
		</g>
	</g>
</g>
<text transform="matrix(1 0 0 1 95.5565 22.3773)" class="st2 st3">N</text>
<text transform="matrix(1 0 0 1 99.0096 187.6434)" class="st2 st3">S</text>
<text transform="matrix(1 0 0 1 185.8367 105.7504)" class="st2 st3">E</text>
<text transform="matrix(1 0 0 1 11.1971 105.7504)" class="st2 st3">W</text>
<line class="st4" x1="71.92" y1="84.69" x2="78.4" y2="97.45"/>
<line class="st4" x1="63.17" y1="95.13" x2="65.32" y2="108.23"/>
<line class="st4" x1="71.92" y1="84.69" x2="65.32" y2="108.23"/>
<line class="st4" x1="78.38" y1="97.84" x2="65.32" y2="108.23"/>
<line class="st4" x1="71.92" y1="84.69" x2="63.17" y2="95.13"/>
<line class="st4" x1="77.48" y1="97.58" x2="63.17" y2="95.13"/>
<line class="st4" x1="97.11" y1="93.27" x2="78.38" y2="97.58"/>
<line class="st4" x1="92.38" y1="109.54" x2="78.4" y2="97.45"/>
<line class="st4" x1="97.11" y1="93.27" x2="103.95" y2="102.42"/>
<line class="st4" x1="106.62" y1="91.2" x2="108.52" y2="79.74"/>
<line class="st4" x1="117.38" y1="92.45" x2="108.52" y2="79.74"/>
<line class="st4" x1="106.62" y1="91.2" x2="97.11" y2="93.27"/>
<line class="st4" x1="116.72" y1="106.29" x2="106.62" y2="91.2"/>
<line class="st4" x1="103.95" y1="102.42" x2="117.18" y2="92.45"/>
<line class="st4" x1="131.26" y1="110.55" x2="116.72" y2="106.29"/>
<line class="st4" x1="139.78" y1="100.94" x2="129.62" y2="109.54"/>
<line class="st4" x1="142.34" y1="116.05" x2="129.62" y2="109.54"/>
<line class="st4" x1="135.83" y1="126.57" x2="129.62" y2="109.54"/>
<line class="st4" x1="119.98" y1="125.09" x2="129.62" y2="109.54"/>
<line class="st4" x1="140.48" y1="101.68" x2="142.34" y2="116.05"/>
<line class="st4" x1="104.15" y1="103.03" x2="103.36" y2="112.79"/>
<line class="st4" x1="92.38" y1="109.54" x2="103.36" y2="112.79"/>
<line class="st4" x1="116.72" y1="106.29" x2="103.36" y2="112.79"/>
<line class="st4" x1="92.38" y1="109.54" x2="85.27" y2="120.99"/>
<line class="st4" x1="75.96" y1="123.59" x2="85.27" y2="120.99"/>
<line class="st4" x1="82.15" y1="129.28" x2="85.27" y2="120.99"/>
<line class="st4" x1="75.96" y1="123.46" x2="82.02" y2="129.33"/>
<line class="st4" x1="103.95" y1="102.42" x2="106.62" y2="91.2"/>
<circle class="st5" cx="63.17" cy="95.13" r="3.25"/>
<circle class="st5" cx="65.32" cy="108.23" r="3.25"/>
<circle class="st5" cx="78.38" cy="97.58" r="4.31"/>
<circle class="st5" cx="71.92" cy="84.69" r="3.25"/>
<circle class="st6" cx="97.11" cy="93.27" r="3.25"/>
<circle class="st6" cx="92.38" cy="109.54" r="3.25"/>
<circle class="st6" cx="104.15" cy="102.42" r="4.88"/>
<circle class="st6" cx="106.62" cy="91.2" r="3.25"/>
<circle class="st6" cx="103.36" cy="112.79" r="3.25"/>
<circle class="st6" cx="116.72" cy="106.29" r="3.25"/>
<circle class="st6" cx="117.18" cy="92.45" r="2.44"/>
<circle class="st6" cx="108.82" cy="79.74" r="2.2"/>
<circle class="st7" cx="119.98" cy="125.09" r="1.63"/>
<circle class="st7" cx="129.62" cy="108.92" r="4.89"/>
<circle class="st7" cx="135.64" cy="125.93" r="1.63"/>
<circle class="st7" cx="141.55" cy="115.27" r="2.47"/>
<circle class="st7" cx="139.78" cy="100.94" r="2.56"/>
<circle class="st8" cx="75.96" cy="123.46" r="2.47"/>
<circle class="st8" cx="85.27" cy="120.99" r="3.25"/>
<circle class="st8" cx="82.15" cy="129.28" r="2.71"/>
</svg>
